<svg width="154" height="65" viewBox="0 0 154 65" fill="none" xmlns="http://www.w3.org/2000/svg">
<g opacity="1">
<path d="M138.457 22.2902C138.333 21.5649 137.216 21.444 137.216 21.444C137.216 21.444 130.268 21.8066 129.896 21.9275C129.399 22.0484 129.027 22.6528 129.027 22.6528L94.2861 25.4332C94.2861 25.4332 94.0379 24.3452 93.7898 24.3452C93.5416 24.3452 92.549 24.3452 92.549 24.3452C92.549 24.3452 92.549 24.1034 92.4249 23.8617C92.3009 23.6199 92.0527 23.6199 92.0527 23.6199L70.2155 25.3123C70.2155 25.3123 70.4637 25.1914 70.3396 23.8617C70.2155 21.2022 69.8433 15.8833 69.8433 15.8833C69.8433 15.8833 69.8433 14.6745 69.5952 14.4327C69.2229 14.0701 68.4785 14.0701 68.4785 14.0701C68.4785 14.0701 68.4785 13.5865 68.2304 13.3448C67.7341 13.103 67.4859 13.3448 67.1137 13.3448C66.7415 13.3448 64.26 13.2239 62.8951 13.3448C60.7859 13.4656 60.1655 13.7074 59.7933 13.5865C59.421 13.5865 59.1729 13.3448 58.8007 13.7074C58.5525 14.0701 58.5525 14.4327 58.5525 14.6745C58.5525 15.0371 58.6766 15.6416 58.8007 15.8833C58.8007 16.1251 58.9247 16.3669 59.297 16.3669C59.6692 16.3669 59.6692 15.8833 60.1655 15.8833C60.7859 15.8833 60.9099 16.246 61.2822 16.246C61.7785 16.246 62.0266 15.7624 62.3988 15.7624C62.7711 15.7624 63.0192 16.1251 63.3914 16.1251C63.7637 16.1251 63.8877 15.6416 64.384 15.6416C64.8803 15.6416 65.0044 16.0042 65.6248 16.0042C66.1211 16.0042 66.2452 15.5207 66.7415 15.5207C67.2378 15.5207 67.61 15.8833 67.9822 15.8833C68.2304 15.8833 68.3544 15.158 68.3544 15.158C68.3544 15.158 68.4785 15.158 68.6026 15.2789C68.7267 15.3998 68.7267 15.7624 68.7267 15.7624L69.2229 23.9825L67.4859 24.1034L67.2378 24.3452L66.3692 24.4661V24.9496H67.1137C67.1137 24.9496 66.9896 25.1914 66.9896 25.3123C66.9896 25.554 67.1137 25.6749 67.1137 25.6749L57.684 26.5211L57.5599 24.2243L58.4284 24.1034C58.4284 24.1034 59.9173 24.7078 60.0414 24.8287C60.1655 24.9496 64.384 24.587 64.384 24.587C64.384 24.587 64.7563 24.587 65.0044 24.4661C65.2526 24.3452 65.7489 23.0155 65.7489 22.4111C65.7489 21.8066 65.2526 20.5978 64.8803 20.5978C64.5081 20.4769 60.6618 20.8396 60.6618 20.8396L58.3044 21.6858L57.0636 21.8066L56.8155 21.444C56.8155 21.444 54.7062 21.5649 54.5821 21.5649C54.458 21.444 54.334 21.6858 54.334 21.6858L52.2247 21.9275C52.2247 21.9275 52.2247 21.6858 52.1006 21.444C51.9765 21.2022 51.9765 21.0813 51.8525 21.0813H50.7358C50.4876 21.0813 50.3636 21.0813 50.1154 21.3231C49.8673 21.5649 49.8673 22.1693 49.8673 22.1693H48.8747C48.8747 22.1693 48.8747 22.1693 48.7506 22.0484C48.6265 21.9275 48.5024 21.8066 48.5024 21.8066L46.5172 21.9275C46.5172 21.9275 46.145 21.8066 45.8969 22.0484C45.6487 22.1693 45.6487 22.5319 45.6487 22.5319C45.6487 22.5319 44.9043 22.6528 44.6561 22.5319C44.1598 22.2902 43.9117 21.9275 43.5394 21.9275C43.1672 21.9275 39.6931 22.1693 39.6931 22.1693L39.445 22.0484C39.445 22.0484 38.9487 22.0484 38.7005 22.1693C38.2042 22.2902 37.9561 23.1364 37.9561 23.9825C37.9561 24.8287 38.3283 25.3123 38.5765 25.6749C38.8246 26.0376 38.9487 25.9167 39.1968 25.9167C39.445 25.9167 39.445 25.7958 39.445 25.7958C39.445 25.7958 43.6635 25.554 43.9117 25.554C44.1598 25.554 44.408 25.3123 44.5321 25.1914C44.6561 25.0705 44.7802 25.0705 44.7802 25.0705H45.1524C45.2765 25.0705 45.5246 25.0705 45.5246 25.0705V27.7299L41.9265 27.8508L41.6783 27.2464C41.6783 27.2464 41.8024 27.2464 42.1746 27.1255C42.6709 27.0046 42.6709 27.1255 42.795 27.1255C42.9191 27.1255 43.1672 27.0046 43.1672 27.0046C43.2913 27.0046 43.7876 26.8838 43.7876 26.8838C44.0358 26.8838 44.0358 26.7629 44.0358 26.7629C44.0358 26.642 44.0358 26.642 43.7876 26.642C43.5395 26.642 43.0432 26.642 43.0432 26.642C43.0432 26.642 42.795 26.5211 42.5469 26.5211C42.4228 26.5211 42.4228 26.642 41.9265 26.642C41.5543 26.642 41.5543 26.642 41.3061 26.642C41.182 26.642 41.058 26.2793 40.6857 26.2793C40.3135 26.2793 40.0654 26.7629 40.0654 27.1255C40.0654 27.6091 39.9413 27.9717 39.9413 27.9717L22.8189 29.5432L19.593 29.785C19.593 29.785 17.4837 30.0267 16.1189 30.3894C14.7541 30.7521 14.63 31.84 14.63 32.2027C14.63 32.5653 15.1263 33.6533 15.2504 34.0159C15.3745 34.3786 15.9948 36.0709 15.9948 36.3127C15.9948 36.5545 16.1189 39.8183 16.1189 39.8183C16.1189 39.8183 16.1189 40.0601 16.7393 40.4228C17.2356 40.6645 18.3523 40.7854 18.3523 40.7854C18.3523 40.7854 18.3523 40.9063 18.4763 41.0272C18.6004 41.1481 19.8411 40.9063 19.8411 40.9063C19.8411 40.9063 27.7819 39.2139 28.0301 38.9722C28.2782 38.7304 28.7745 37.6424 28.8986 36.7962C29.0227 35.9501 29.7671 33.5324 29.7671 33.5324L38.5765 32.928L41.3061 35.4665V36.9171L41.058 37.2798H40.9339C40.9339 37.2798 40.1894 38.0051 39.8172 38.7304C39.3209 39.4557 37.9561 41.5107 37.832 42.1151C37.7079 42.7196 37.7079 43.0822 38.0802 43.2031C38.4524 43.4449 40.9339 43.9284 41.6783 44.0493C42.2987 44.1702 42.5469 43.6866 42.6709 43.4449C42.795 43.2031 42.5469 42.8404 42.4228 42.4778C42.4228 42.1151 43.4154 40.3019 43.5394 40.0601C43.6635 39.9392 44.2839 39.9392 44.2839 39.6975C44.2839 39.5766 44.0358 39.093 44.0358 38.7304C44.0358 38.3677 44.5321 37.8842 44.5321 37.8842H44.6561C44.7802 37.8842 44.9043 38.0051 44.9043 38.0051H45.0283C45.4006 38.126 45.5246 38.126 46.0209 38.126C46.0209 38.126 47.0135 38.3677 47.758 37.8842C47.758 37.8842 47.758 37.8842 47.8821 37.8842C48.3784 37.6424 48.6265 37.1589 48.6265 37.1589C48.7506 37.2798 48.9987 37.4007 48.9987 37.4007C48.9987 37.4007 48.8747 37.5215 48.8747 37.7633C48.8747 38.0051 48.7506 38.9722 48.8747 38.9722C48.9987 38.9722 48.9987 38.4886 49.2469 38.2469C49.371 38.0051 49.6191 37.8842 49.6191 37.8842C49.6191 37.8842 50.1154 43.5657 50.1154 43.6866C50.1154 43.8075 50.3636 43.9284 50.3636 43.9284C50.3636 43.9284 61.1581 41.5107 61.9025 41.269C62.647 41.1481 62.647 40.9063 62.647 40.9063L61.7785 34.1368C61.7785 34.1368 63.0192 33.5324 63.5155 33.2906C64.0118 33.0488 64.5081 31.2356 64.5081 31.2356L66.4933 31.1147C66.6174 31.5982 67.1137 32.0818 67.7341 32.0818C68.2304 32.0818 68.6026 31.84 68.7267 31.4774C68.4785 31.7191 68.2304 31.9609 67.7341 31.9609C67.2378 31.9609 66.7415 31.4774 66.7415 31.1147L67.8581 30.9938V31.4774H68.7267L70.2155 31.3565V30.752L81.5064 29.9059L81.6304 31.5982H82.3749V34.1368H82.8712C82.8712 34.1368 82.9953 34.2577 82.623 34.6203C82.3749 34.983 82.0027 34.8621 82.0027 34.8621V49.3682C82.0027 49.3682 81.6304 49.6099 81.5064 49.8517C81.2582 50.0935 81.1341 50.9397 81.3823 51.1814C81.6304 51.4232 84.1119 51.3023 84.7323 51.3023C85.3527 51.3023 85.7249 50.6979 85.7249 50.4561C85.7249 50.2144 85.3527 49.7308 85.3527 49.7308L85.2286 38.4886L86.2212 42.236C86.2212 42.236 86.0971 42.3569 85.9731 42.5987C85.849 42.7196 85.9731 42.9613 86.2212 43.2031C86.4694 43.324 89.3231 43.2031 89.6953 43.2031C90.0675 43.2031 90.1916 42.1151 90.0675 41.8734C89.9435 41.7525 89.199 41.7525 89.199 41.7525L85.9731 31.9609C85.9731 31.9609 86.0971 31.9609 86.3453 31.84C86.5934 31.84 86.8416 31.5982 86.8416 31.3565C86.8416 31.1147 86.7175 30.2685 86.7175 30.1476C86.7175 29.9059 87.0897 29.785 87.0897 29.785C87.0897 29.785 93.9138 29.4223 94.162 29.3014C94.4101 29.1806 94.7824 28.3344 94.7824 28.3344L129.027 25.554C129.027 25.554 129.151 25.6749 129.275 25.7958C129.399 25.9167 129.523 26.0376 129.896 26.1585C130.268 26.2793 136.223 25.6749 137.216 25.554C138.209 25.4332 138.457 24.9496 138.457 24.8287C138.705 24.4661 138.581 23.0155 138.457 22.2902ZM27.7819 36.3127C27.7819 36.3127 27.6579 36.5545 27.4097 36.7962C27.1616 36.9171 26.7893 37.038 26.7893 37.038L19.8411 38.6095V34.3786L28.5264 33.7741L27.7819 36.3127ZM47.5098 38.0051H47.3858H47.2617C46.3932 38.2469 45.1524 37.7633 44.9043 37.6424C44.7802 37.4007 44.5321 35.5874 44.6561 35.5874C44.7802 35.4665 45.8969 35.4665 45.8969 35.4665C45.8969 35.4665 45.7728 36.0709 46.0209 36.6754C46.2691 37.2798 46.7654 37.6424 46.8895 37.6424C47.0135 37.6424 47.0135 37.4007 46.8895 37.1589C46.7654 36.9171 46.6413 36.4336 46.6413 36.0709C46.6413 35.5874 46.7654 35.3456 46.7654 35.3456L48.1302 35.2248L48.3784 37.038C48.2543 37.1589 48.1302 37.7633 47.5098 38.0051ZM54.334 26.642L48.9987 27.1255L48.7506 26.8838L48.8747 24.7079C48.8747 24.7079 50.4876 24.4661 51.3562 24.4661C52.1006 24.4661 54.334 24.3452 54.334 24.3452V26.642ZM85.849 32.928C85.849 33.0488 85.849 33.1697 85.7249 33.1697C85.6008 33.1697 85.4768 33.1697 85.3527 33.0488C85.3527 32.928 85.3527 32.8071 85.4768 32.6862C85.7249 32.6862 85.849 32.8071 85.849 32.928ZM82.8712 46.2252C82.7471 46.2252 82.623 46.1043 82.623 45.9834C82.623 45.8625 82.7471 45.7417 82.8712 45.7417C82.9953 45.7417 83.1193 45.8625 83.1193 45.9834C83.1193 46.1043 82.9953 46.2252 82.8712 46.2252ZM82.8712 45.1372C82.7471 45.1372 82.623 45.0164 82.623 44.8955C82.623 44.7746 82.7471 44.6537 82.8712 44.6537C82.9953 44.6537 83.1193 44.7746 83.1193 44.8955C83.1193 45.0164 82.9953 45.1372 82.8712 45.1372ZM82.8712 44.0493C82.7471 44.0493 82.623 43.9284 82.623 43.8075C82.623 43.6866 82.7471 43.5657 82.8712 43.5657C82.9953 43.5657 83.1193 43.6866 83.1193 43.8075C83.1193 43.9284 82.9953 44.0493 82.8712 44.0493ZM82.8712 42.9613C82.7471 42.9613 82.623 42.8404 82.623 42.7196C82.623 42.5987 82.7471 42.4778 82.8712 42.4778C82.9953 42.4778 83.1193 42.5987 83.1193 42.7196C83.1193 42.8404 82.9953 42.9613 82.8712 42.9613ZM82.8712 41.8734C82.7471 41.8734 82.623 41.7525 82.623 41.6316C82.623 41.5107 82.7471 41.3898 82.8712 41.3898C82.9953 41.3898 83.1193 41.5107 83.1193 41.6316C83.1193 41.7525 82.9953 41.8734 82.8712 41.8734ZM82.8712 40.7854C82.7471 40.7854 82.623 40.6645 82.623 40.5436C82.623 40.4228 82.7471 40.3019 82.8712 40.3019C82.9953 40.3019 83.1193 40.4228 83.1193 40.5436C83.1193 40.6645 82.9953 40.7854 82.8712 40.7854ZM82.8712 39.6975C82.7471 39.6975 82.623 39.5766 82.623 39.4557C82.623 39.3348 82.7471 39.2139 82.8712 39.2139C82.9953 39.2139 83.1193 39.3348 83.1193 39.4557C83.1193 39.5766 82.9953 39.6975 82.8712 39.6975ZM82.8712 38.6095C82.7471 38.6095 82.623 38.4886 82.623 38.3677C82.623 38.2469 82.7471 38.126 82.8712 38.126C82.9953 38.126 83.1193 38.2469 83.1193 38.3677C83.1193 38.4886 82.9953 38.6095 82.8712 38.6095ZM82.8712 37.5215C82.7471 37.5215 82.623 37.4007 82.623 37.2798C82.623 37.1589 82.7471 37.038 82.8712 37.038C82.9953 37.038 83.1193 37.1589 83.1193 37.2798C83.1193 37.4007 82.9953 37.5215 82.8712 37.5215ZM84.6082 46.2252C84.4842 46.2252 84.3601 46.1043 84.3601 45.9834C84.3601 45.8625 84.4842 45.7417 84.6082 45.7417C84.7323 45.7417 84.8564 45.8625 84.8564 45.9834C84.8564 46.1043 84.7323 46.2252 84.6082 46.2252ZM84.6082 45.1372C84.4842 45.1372 84.3601 45.0164 84.3601 44.8955C84.3601 44.7746 84.4842 44.6537 84.6082 44.6537C84.7323 44.6537 84.8564 44.7746 84.8564 44.8955C84.8564 45.0164 84.7323 45.1372 84.6082 45.1372ZM84.6082 44.0493C84.4842 44.0493 84.3601 43.9284 84.3601 43.8075C84.3601 43.6866 84.4842 43.5657 84.6082 43.5657C84.7323 43.5657 84.8564 43.6866 84.8564 43.8075C84.8564 43.9284 84.7323 44.0493 84.6082 44.0493ZM84.6082 42.9613C84.4842 42.9613 84.3601 42.8404 84.3601 42.7196C84.3601 42.5987 84.4842 42.4778 84.6082 42.4778C84.7323 42.4778 84.8564 42.5987 84.8564 42.7196C84.8564 42.8404 84.7323 42.9613 84.6082 42.9613ZM84.6082 41.8734C84.4842 41.8734 84.3601 41.7525 84.3601 41.6316C84.3601 41.5107 84.4842 41.3898 84.6082 41.3898C84.7323 41.3898 84.8564 41.5107 84.8564 41.6316C84.8564 41.7525 84.7323 41.8734 84.6082 41.8734ZM84.6082 40.7854C84.4842 40.7854 84.3601 40.6645 84.3601 40.5436C84.3601 40.4228 84.4842 40.3019 84.6082 40.3019C84.7323 40.3019 84.8564 40.4228 84.8564 40.5436C84.8564 40.6645 84.7323 40.7854 84.6082 40.7854ZM84.6082 39.6975C84.4842 39.6975 84.3601 39.5766 84.3601 39.4557C84.3601 39.3348 84.4842 39.2139 84.6082 39.2139C84.7323 39.2139 84.8564 39.3348 84.8564 39.4557C84.8564 39.5766 84.7323 39.6975 84.6082 39.6975ZM84.6082 38.6095C84.4842 38.6095 84.3601 38.4886 84.3601 38.3677C84.3601 38.2469 84.4842 38.126 84.6082 38.126C84.7323 38.126 84.8564 38.2469 84.8564 38.3677C84.8564 38.4886 84.7323 38.6095 84.6082 38.6095ZM84.6082 37.5215C84.4842 37.5215 84.3601 37.4007 84.3601 37.2798C84.3601 37.1589 84.4842 37.038 84.6082 37.038C84.7323 37.038 84.8564 37.1589 84.8564 37.2798C84.8564 37.4007 84.7323 37.5215 84.6082 37.5215ZM84.6082 36.4336C84.4842 36.4336 84.3601 36.3127 84.3601 36.1918C84.3601 36.0709 84.4842 35.9501 84.6082 35.9501C84.7323 35.9501 84.8564 36.0709 84.8564 36.1918C84.8564 36.3127 84.7323 36.4336 84.6082 36.4336ZM84.6082 35.3456C84.4842 35.3456 84.3601 35.2248 84.3601 35.1039C84.3601 34.983 84.4842 34.8621 84.6082 34.8621C84.7323 34.8621 84.8564 34.983 84.8564 35.1039C84.8564 35.2248 84.7323 35.3456 84.6082 35.3456ZM85.1045 31.9609C85.1045 31.84 85.1045 31.7191 85.2286 31.7191C85.3527 31.7191 85.4768 31.7191 85.4768 31.84C85.4768 31.9609 85.4768 32.0818 85.3527 32.0818C85.2286 32.2027 85.1045 32.0818 85.1045 31.9609ZM85.3527 37.6424C85.3527 37.5215 85.3527 37.4007 85.4768 37.2798C85.6008 37.2798 85.7249 37.2798 85.7249 37.4007C85.7249 37.5215 85.7249 37.6424 85.6008 37.6424C85.6008 37.8842 85.4768 37.7633 85.3527 37.6424ZM85.7249 38.7304C85.7249 38.6095 85.7249 38.4886 85.849 38.4886C85.9731 38.4886 86.0971 38.4886 86.0971 38.6095C86.0971 38.7304 86.0971 38.8513 85.9731 38.8513C85.9731 38.8513 85.7249 38.8513 85.7249 38.7304ZM86.0971 39.6975C86.0971 39.5766 86.0971 39.4557 86.2212 39.4557C86.3453 39.4557 86.4694 39.4557 86.5934 39.5766C86.5934 39.6975 86.5934 39.8183 86.4694 39.9392C86.2212 39.9392 86.0971 39.8183 86.0971 39.6975ZM86.7175 40.9063C86.5934 40.9063 86.4694 40.9063 86.4694 40.7854C86.4694 40.6645 86.4694 40.5436 86.5934 40.5436C86.7175 40.5436 86.8416 40.5436 86.8416 40.6645C86.9657 40.7854 86.8416 40.9063 86.7175 40.9063ZM88.3305 40.181C88.3305 40.3019 88.3305 40.4228 88.2064 40.5436C88.0823 40.5436 87.9583 40.5436 87.9583 40.4228C87.9583 40.3019 87.9583 40.181 88.0823 40.181C88.0823 39.9392 88.2064 40.0601 88.3305 40.181ZM87.9583 39.093C87.9583 39.2139 87.9583 39.3348 87.8342 39.3348C87.7101 39.3348 87.586 39.3348 87.586 39.2139C87.586 39.093 87.586 38.9722 87.7101 38.9722C87.7101 38.9722 87.8342 38.9722 87.9583 39.093ZM87.586 38.0051C87.586 38.126 87.586 38.2469 87.462 38.2469C87.3379 38.2469 87.2138 38.2469 87.2138 38.126C87.2138 38.0051 87.2138 37.8842 87.3379 37.7633C87.462 37.8842 87.586 38.0051 87.586 38.0051ZM87.2138 37.038C87.2138 37.1589 87.2138 37.2798 87.0897 37.2798C86.9657 37.2798 86.8416 37.2798 86.8416 37.1589C86.8416 37.038 86.8416 36.9171 86.9657 36.9171C87.0897 36.7962 87.2138 36.9171 87.2138 37.038ZM86.8416 35.9501C86.8416 36.0709 86.8416 36.1918 86.7175 36.1918C86.5934 36.1918 86.4694 36.1918 86.4694 36.0709C86.4694 35.9501 86.4694 35.8292 86.5934 35.8292C86.7175 35.8292 86.8416 35.8292 86.8416 35.9501ZM86.5934 34.983C86.5934 35.1039 86.5934 35.2248 86.4694 35.3456C86.3453 35.3456 86.2212 35.3456 86.2212 35.2248C86.2212 35.1039 86.2212 34.983 86.3453 34.983C86.3453 34.7412 86.4694 34.8621 86.5934 34.983ZM86.2212 33.895C86.2212 34.0159 86.2212 34.1368 86.0971 34.1368C85.9731 34.1368 85.849 34.1368 85.849 34.0159C85.849 33.895 85.849 33.7741 85.9731 33.7741C85.9731 33.7741 86.2212 33.7741 86.2212 33.895Z" fill="white"/>
</g>
</svg>
